<svg xmlns="http://www.w3.org/2000/svg" width="24" height="24" viewBox="0 0 24 24" fill="currentColor"><path d="M23.268 5.313c-.35-2.578-2.617-4.61-5.304-5.004C17.51.242 15.792 0 11.813 0h-.03c-3.98 0-4.835.242-5.288.309C3.882.692 1.496 2.518.917 5.127.64 6.412.61 7.837.661 9.143c.074 1.874.088 3.745.26 5.611.118 1.24.325 2.47.62 3.68.55 2.237 2.777 4.098 4.96 4.857 2.336.792 4.849.923 7.256.38.265-.061.527-.132.786-.213.585-.184 1.27-.39 1.774-.753a.057.057 0 0 0 .023-.043v-1.809a.052.052 0 0 0-.02-.041.053.053 0 0 0-.046-.01 20.282 20.282 0 0 1-4.709.547c-2.73 0-3.463-1.284-3.674-1.818a5.593 5.593 0 0 1-.319-1.433.053.053 0 0 1 .066-.054 19.648 19.648 0 0 0 4.168.507c.35 0 .7-.003 1.053-.019 1.918-.08 3.937-.236 5.812-.752.047-.013.09-.028.132-.044 2.545-.638 4.97-2.635 5.208-7.397.009-.189.034-1.96.034-2.155 0-.66.192-4.685-.061-7.16zM19.56 14.272h-2.846V8.148c0-1.473-.879-2.22-2.11-2.046-1.44.204-2.171 1.217-2.171 2.42v3.353h-2.83V8.522c0-1.203-.732-2.216-2.172-2.42-1.23-.174-2.11.573-2.11 2.046v6.124H2.47V7.886c0-1.473.397-2.645 1.192-3.516.82-.88 1.893-1.33 3.224-1.33 1.541 0 2.71.583 3.49 1.749L12 7.032l1.624-2.243c.78-1.166 1.948-1.749 3.49-1.749 1.33 0 2.403.45 3.223 1.33.795.871 1.192 2.043 1.192 3.516v6.386z"/></svg>
